<svg width="487" height="487" viewBox="0 0 487 487" fill="none" xmlns="http://www.w3.org/2000/svg">
<path d="M450.452 0.0684736C375.644 -0.141446 99.7222 0.211834 35.9475 0.0684736C16.1024 0.0684736 0 15.6794 0 34.905V451.576C0 470.806 16.1024 486.402 35.9475 486.402H450.452C470.308 486.402 486.4 470.806 486.4 451.571V34.905C486.4 15.6794 470.308 0.0684736 450.452 0.0684736Z" fill="#0077B5"/>
<path d="M260.879 407.067V284.807C260.168 262.34 273.597 241.374 300.621 240.432C326.953 240.432 337.49 260.508 337.49 289.942V407.062H410.266V281.525C410.266 214.274 374.364 182.98 326.477 182.98C287.217 182.98 269.973 204.92 260.393 219.865L260.879 188.121H188.104C189.051 208.662 188.099 407.067 188.099 407.067H260.879ZM147.814 312.122V188.116H75.0285V407.062H147.82C147.804 384.074 147.845 334.788 147.814 312.122ZM111.437 158.23C136.812 158.23 152.612 141.416 152.612 120.409C152.402 69.7363 70.6714 70.2995 70.7379 120.404C70.6816 141.575 86.9171 158.492 111.437 158.23Z" fill="#F1F1F1"/>
</svg>
