<svg width="2500" height="1809" viewBox="0 0 2500 1809" fill="none" xmlns="http://www.w3.org/2000/svg">
<path d="M2294.86 0C2407.5 0 2499.67 92.1643 2499.67 204.804V264.176L2215.13 467.428L1246.42 1134.72L277.716 460.659V1808.73H204.806C92.1662 1808.73 0 1716.57 0 1603.93V204.861C0 92.2191 92.1662 0.0548093 204.806 0.0548093L1246.42 772.332L2294.81 0.0548093L2294.86 0Z" fill="#E75A4D"/>
<path d="M204.806 0L1246.42 772.277L2294.86 0H204.806Z" fill="url(#paint0_linear_258514_1239)"/>
<path d="M277.716 460.659V1808.73H2215.18V467.428L1246.42 1134.72L277.716 460.659Z" fill="#E7E4D7"/>
<path d="M277.716 1808.73L1246.42 1134.72L1242.04 1131.62L277.716 1793.92V1808.73Z" fill="#B8B7AE"/>
<path d="M2215.18 467.428L2215.74 1808.73L1246.42 1134.72L2215.18 467.428Z" fill="#B7B6AD"/>
<path d="M2499.67 264.176L2500 1604.09C2495.12 1753.02 2430.59 1806.18 2215.74 1808.68L2215.18 467.373L2499.72 264.122L2499.67 264.176Z" fill="#B2392F"/>
<path d="M204.806 0L1246.42 772.277L2294.86 0H204.806Z" fill="url(#paint1_linear_258514_1239)"/>
<path d="M204.806 0L1246.42 772.277L2294.86 0H204.806Z" fill="url(#paint2_linear_258514_1239)"/>
<path d="M204.806 0L1246.42 772.277L2294.86 0H204.806Z" fill="url(#paint3_linear_258514_1239)"/>
<path d="M204.806 0L1246.42 772.277L2294.86 0H204.806Z" fill="url(#paint4_linear_258514_1239)"/>
<path d="M204.806 0L1246.42 772.277L2294.86 0H204.806Z" fill="url(#paint5_linear_258514_1239)"/>
<path d="M204.806 0L1246.42 772.277L2294.86 0H204.806Z" fill="url(#paint6_linear_258514_1239)"/>
<path d="M204.806 0L1246.42 772.277L2294.86 0H204.806Z" fill="url(#paint7_linear_258514_1239)"/>
<path d="M204.806 0L1246.42 772.277L2294.86 0H204.806Z" fill="#F7F5ED"/>
<defs>
<linearGradient id="paint0_linear_258514_1239" x1="580.852" y1="386.206" x2="1916.28" y2="386.206" gradientUnits="userSpaceOnUse">
<stop stop-color="#F8F6EF"/>
<stop offset="1" stop-color="#E7E4D6"/>
</linearGradient>
<linearGradient id="paint1_linear_258514_1239" x1="580.852" y1="386.206" x2="1916.28" y2="386.206" gradientUnits="userSpaceOnUse">
<stop stop-color="#F8F6EF"/>
<stop offset="1" stop-color="#E7E4D6"/>
</linearGradient>
<linearGradient id="paint2_linear_258514_1239" x1="580.852" y1="386.206" x2="1916.28" y2="386.206" gradientUnits="userSpaceOnUse">
<stop stop-color="#F8F6EF"/>
<stop offset="1" stop-color="#E7E4D6"/>
</linearGradient>
<linearGradient id="paint3_linear_258514_1239" x1="580.852" y1="386.206" x2="1916.28" y2="386.206" gradientUnits="userSpaceOnUse">
<stop stop-color="#F8F6EF"/>
<stop offset="1" stop-color="#E7E4D6"/>
</linearGradient>
<linearGradient id="paint4_linear_258514_1239" x1="580.852" y1="386.206" x2="1916.28" y2="386.206" gradientUnits="userSpaceOnUse">
<stop stop-color="#F8F6EF"/>
<stop offset="1" stop-color="#E7E4D6"/>
</linearGradient>
<linearGradient id="paint5_linear_258514_1239" x1="580.852" y1="386.206" x2="1916.28" y2="386.206" gradientUnits="userSpaceOnUse">
<stop stop-color="#F8F6EF"/>
<stop offset="1" stop-color="#E7E4D6"/>
</linearGradient>
<linearGradient id="paint6_linear_258514_1239" x1="580.852" y1="386.206" x2="1916.28" y2="386.206" gradientUnits="userSpaceOnUse">
<stop stop-color="#F8F6EF"/>
<stop offset="1" stop-color="#E7E4D6"/>
</linearGradient>
<linearGradient id="paint7_linear_258514_1239" x1="580.852" y1="386.206" x2="1916.28" y2="386.206" gradientUnits="userSpaceOnUse">
<stop stop-color="#F8F6EF"/>
<stop offset="1" stop-color="#E7E4D6"/>
</linearGradient>
</defs>
</svg>
